<svg xmlns="http://www.w3.org/2000/svg" viewBox="0 0 2656.97 516.93" fill="#1b1b39">
  <path d="M322.1 291.55 183.28 49.47h277.65Z"></path>
  <path d="M812.73 190.42a82 82 0 0 1 32.87 6.63 79 79 0 0 1 27 19.09l47.48-35.56a133.9 133.9 0 0 0-48.37-36.93 139.9 139.9 0 0 0-60.54-12.33c-77.26 0-145.33 52-145.33 133s68.07 133 145.33 133a141.49 141.49 0 0 0 60.47-12.48 135.43 135.43 0 0 0 48.44-36.78l-47.48-35.57a79 79 0 0 1-27 19.09 82 82 0 0 1-32.87 6.63c-46.34 0-79.56-30.67-79.56-73.89s33.22-73.9 79.56-73.9Zm137.75-53.62h66.38v255.89h-66.38zM983.75 7.66c-23.52 0-43.56 16.4-43.56 38.85 0 21.87 20.31 38.95 43.56 38.84a43 43 0 0 0 16.14-2.5 41.61 41.61 0 0 0 13.86-8.29 39.55 39.55 0 0 0 9.41-12.78 38 38 0 0 0 3.5-15.27c0-22.45-19.39-38.85-42.91-38.85ZM2178.51 171c-18.46-26.82-55.49-39.42-89.25-39.42-70.41 0-131.07 51.5-131.07 133s61.26 133.57 131.62 133.57c32.61 0 70.4-12.61 88.7-40v34.53H2245V136.79l-66.44.26Zm-6.59 121.39a72.2 72.2 0 0 1-16.69 24.29 76.49 76.49 0 0 1-25.23 16.13 79.67 79.67 0 0 1-29.87 5.4c-41.17 0-74.92-31.77-74.92-74.42a68.5 68.5 0 0 1 5.06-28 71 71 0 0 1 16.1-23.89 74.92 74.92 0 0 1 24.6-16 77.57 77.57 0 0 1 29.16-5.51 79.63 79.63 0 0 1 29.52 5.44 77 77 0 0 1 25.08 15.87 73.36 73.36 0 0 1 16.78 23.86 70.61 70.61 0 0 1 5.88 28.2 69.68 69.68 0 0 1-5.47 28.63ZM2285.21 0h66.44v392.69h-66.44zm266.46 252.72 87.55-116.02h-78.41l-46.93 65.14-46.95-65.14h-78.36l87.57 116.02-105.32 139.61h77.93l65.33-88.16 64.71 88.52 78.18-.36-105.3-139.61zM1895.19 136.8l-70.4 175.18-70.27-173.88.58-1.3h-72.65l.2.46-70.22 174.72-70.79-175.18h-45.19v-.01l-71.28-.26-68.66 162-69.27-162-72.77.52h-50.51V42.96h-66.38v94.09h-48.08v50.93h48.08v204.71h66.38V187.72h56.63l8.94-.01 91.04 186.9-59.9 142.32h69.81l152.79-349.95 98.45 225.45h60.66l76.21-172.85 75.48 172.85h60.67l112.72-255.63h-72.27zM424.46 181.77 322.11 359.69l-134.1-233.1H0l116.92 305.94h403.37l-95.83-250.76z"></path>
</svg>
