<svg id="Layer_1" data-name="Layer 1" viewBox="0 0 480.17 111.87" xmlns="http://www.w3.org/2000/svg" xmlns:xlink="http://www.w3.org/1999/xlink">
  <defs>
    <style type="text/css">
      .cls-1{fill:#222530;}
      .cls-2{fill:#FFF;}
    </style>
  </defs>
  <path class="cls-1" d="M57,421.63q0,23.88,17.37,39.45T120,476.64q28.23,0,45.61-15.56T183,421.63q0-24.6-17.37-40.18T120,365.89q-28.23,0-45.6,15.56T57,421.63Z" transform="translate(-57 -365.89)"></path>
  <path class="cls-1" d="M261.77,453.47V385.38H248.89v27.69a17.18,17.18,0,0,0-6.58-8.19,19.37,19.37,0,0,0-11-3,22,22,0,0,0-11.6,3.12,21.18,21.18,0,0,0-8.05,9.07,35,35,0,0,0,0,27.88,21.09,21.09,0,0,0,8.05,9.06,21.88,21.88,0,0,0,11.6,3.13,19.17,19.17,0,0,0,11-3.08,17.4,17.4,0,0,0,6.58-8.24v10.68ZM248.89,428q0,6.72-3.82,10.72a13.95,13.95,0,0,1-19.46.09q-3.68-3.92-3.68-10.81t3.68-10.86a12.68,12.68,0,0,1,9.75-4,12.83,12.83,0,0,1,9.71,4q3.83,4,3.82,10.81Z" transform="translate(-57 -365.89)"></path>
  <path class="cls-1" d="M318.73,426.05a25,25,0,0,0-3.08-12.47,22.14,22.14,0,0,0-8.74-8.61,27,27,0,0,0-13.21-3.12A27.53,27.53,0,0,0,280.45,405a22,22,0,0,0-9,9.07A28.87,28.87,0,0,0,268.21,428a28.56,28.56,0,0,0,3.22,13.89,22.38,22.38,0,0,0,9,9.07,29.2,29.2,0,0,0,24.8.78,22.63,22.63,0,0,0,8.51-6.63,22,22,0,0,0,4.33-9.57H304.38a9.86,9.86,0,0,1-3.82,6,12.32,12.32,0,0,1-7.5,2.2,11.83,11.83,0,0,1-8.47-3.22q-3.4-3.21-3.68-10h37.36a24.22,24.22,0,0,0,.46-4.41Zm-13.07-1.29H280.91q.38-6.25,4-9.48a12.73,12.73,0,0,1,8.83-3.22,12.46,12.46,0,0,1,8.7,3.22q3.54,3.23,3.26,9.48Z" transform="translate(-57 -365.89)"></path>
  <polygon class="cls-1" points="267.59 19.49 267.59 87.58 280.56 87.58 280.56 19.49 267.59 19.49 267.59 19.49"></polygon>
  <path class="cls-1" d="M399,428A31.46,31.46,0,0,0,396.1,414a21.18,21.18,0,0,0-8.05-9.07,22,22,0,0,0-11.59-3.12,19.41,19.41,0,0,0-11,3,16.66,16.66,0,0,0-6.49,8.19V402.49H346v75.27h13v-35a16.87,16.87,0,0,0,6.49,8.24,19.2,19.2,0,0,0,11,3.08A21.87,21.87,0,0,0,388.05,451a21.09,21.09,0,0,0,8.05-9.06A31.46,31.46,0,0,0,399,428Zm-13.16,0q0,6.9-3.68,10.81a13.95,13.95,0,0,1-19.46-.09q-3.82-4-3.82-10.72t3.82-10.81a12.83,12.83,0,0,1,9.71-4,12.67,12.67,0,0,1,9.75,4q3.68,4,3.68,10.86Z" transform="translate(-57 -365.89)"></path>
  <path class="cls-1" d="M435.22,401.75a19.85,19.85,0,0,0-10.72,2.9,16.33,16.33,0,0,0-6.67,8.05V385.38h-13v68.09h13V426.41q0-6.71,3.32-10.3a11.43,11.43,0,0,1,8.83-3.59,11.13,11.13,0,0,1,8.56,3.36q3.12,3.36,3.12,9.43v28.16h12.89V423.84q0-10.5-5.25-16.29t-14.08-5.8Z" transform="translate(-57 -365.89)"></path>
  <path class="cls-1" d="M513.62,453.47v-51H500.74v10.58a16.59,16.59,0,0,0-6.54-8.19,19.59,19.59,0,0,0-11-3A21.93,21.93,0,0,0,471.57,405a21.11,21.11,0,0,0-8.05,9.07,35,35,0,0,0,0,27.88,21,21,0,0,0,8.05,9.06,21.84,21.84,0,0,0,11.59,3.13,19.37,19.37,0,0,0,11-3.08,16.8,16.8,0,0,0,6.54-8.24v10.68ZM500.74,428q0,6.72-3.82,10.72a13.95,13.95,0,0,1-19.46.09q-3.69-3.92-3.68-10.81t3.68-10.86a12.67,12.67,0,0,1,9.75-4,12.84,12.84,0,0,1,9.71,4q3.81,4,3.82,10.81Z" transform="translate(-57 -365.89)"></path>
  <path class="cls-1" d="M521.16,387.86a6.43,6.43,0,0,0,2.21,5,9.48,9.48,0,0,0,11.6,0,6.42,6.42,0,0,0,2.2-5,6.54,6.54,0,0,0-2.2-5.11,9.48,9.48,0,0,0-11.6,0,6.55,6.55,0,0,0-2.21,5.11Z" transform="translate(-57 -365.89)"></path>
  <polygon class="cls-1" points="465.64 36.6 465.64 87.58 478.61 87.58 478.61 36.6 465.64 36.6 465.64 36.6"></polygon>
  <path class="cls-2" d="M143.93,453.47v-51H131.05v10.58a16.57,16.57,0,0,0-6.53-8.19,19.63,19.63,0,0,0-11-3,22,22,0,0,0-11.6,3.12,21.18,21.18,0,0,0-8,9.07,35,35,0,0,0,0,27.88,21.09,21.09,0,0,0,8,9.06,21.88,21.88,0,0,0,11.6,3.13,19.42,19.42,0,0,0,11-3.08,16.78,16.78,0,0,0,6.53-8.24v10.68ZM131.05,428q0,6.72-3.82,10.72a13.95,13.95,0,0,1-19.46.09q-3.67-3.92-3.68-10.81t3.68-10.86a13.87,13.87,0,0,1,19.46.05q3.83,4,3.82,10.81Z" transform="translate(-57 -365.89)"></path>
  <path class="cls-2" d="M129.51,387.86a6.43,6.43,0,0,0,2.21,5,9.47,9.47,0,0,0,11.59,0,6.4,6.4,0,0,0,2.21-5,6.52,6.52,0,0,0-2.21-5.11,9.47,9.47,0,0,0-11.59,0,6.55,6.55,0,0,0-2.21,5.11Z" transform="translate(-57 -365.89)"></path>
</svg>